<svg width="1440" height="420" viewBox="0 0 1440 420" xmlns="http://www.w3.org/2000/svg">
  <defs>
    <linearGradient id="grad2" x1="0%" y1="0%" x2="100%" y2="100%">
      <stop offset="0%" style="stop-color:#164e63;stop-opacity:0.9" />
      <stop offset="100%" style="stop-color:#0e7490;stop-opacity:0.9" />
    </linearGradient>
  </defs>
  <rect width="1440" height="420" fill="url(#grad2)" />
  <!-- Ice Cream Cone (Center) -->
  <g id="icecream-center">
    <path d="M 700 150 L 750 280 L 650 280 Z" fill="#d4914d" stroke="#a0602f" stroke-width="2" />
    <circle cx="700" cy="90" r="45" fill="#ffb3d9" />
    <circle cx="675" cy="75" r="35" fill="#ff85b3" />
    <circle cx="725" cy="80" r="38" fill="#ff99cc" />
    <path d="M 670 110 Q 700 95 730 110" fill="#fff" opacity="0.4" />
  </g>
  <!-- Gift Box (Left) -->
  <g id="gift-left">
    <rect x="150" y="200" width="100" height="120" rx="8" fill="#8b5cf6" />
    <ellipse cx="200" cy="200" rx="50" ry="12" fill="#a78bfa" />
    <rect x="192" y="182" width="16" height="145" fill="#fbbf24" />
  </g>
  <!-- Toys - Toy Car (Right) -->
  <g id="toycar">
    <rect x="1150" y="250" width="80" height="40" rx="8" fill="#ef4444" />
    <circle cx="1170" cy="290" r="12" fill="#000" />
    <circle cx="1210" cy="290" r="12" fill="#000" />
    <rect x="1160" y="240" width="50" height="20" rx="4" fill="#ffcccb" />
  </g>
  <!-- Toys - Spinning Top (Left-Bottom) -->
  <g id="top">
    <circle cx="250" cy="330" r="18" fill="#10b981" />
    <polygon points="250,312 268,330 250,348 232,330" fill="#34d399" />
    <circle cx="250" cy="330" r="6" fill="#059669" />
  </g>
  <!-- Stars -->
  <circle cx="300" cy="70" r="2" fill="#fbbf24" opacity="0.7" />
  <circle cx="1200" cy="80" r="3" fill="#34d399" opacity="0.6" />
  <circle cx="500" cy="50" r="2.5" fill="#fbbf24" opacity="0.5" />
</svg>