<svg width="1440" height="420" viewBox="0 0 1440 420" xmlns="http://www.w3.org/2000/svg">
  <defs>
    <linearGradient id="grad3" x1="0%" y1="0%" x2="100%" y2="100%">
      <stop offset="0%" style="stop-color:#7c3aed;stop-opacity:0.9" />
      <stop offset="100%" style="stop-color:#6d28d9;stop-opacity:0.9" />
    </linearGradient>
  </defs>
  <rect width="1440" height="420" fill="url(#grad3)" />
  <!-- Teddy Bear (Left) -->
  <g id="bear">
    <circle cx="150" cy="220" r="50" fill="#d4914d" />
    <circle cx="110" cy="190" r="15" fill="#d4914d" />
    <circle cx="190" cy="190" r="15" fill="#d4914d" />
    <circle cx="130" cy="210" r="8" fill="#000" />
    <circle cx="170" cy="210" r="8" fill="#000" />
    <circle cx="150" cy="235" r="6" fill="#8b4513" />
    <ellipse cx="115" cy="260" rx="12" ry="18" fill="#d4914d" />
    <ellipse cx="185" cy="260" rx="12" ry="18" fill="#d4914d" />
  </g>
  <!-- Gift Box (Center-Right) -->
  <g id="gift-purple">
    <rect x="900" y="160" width="130" height="150" rx="10" fill="#ec4899" />
    <ellipse cx="965" cy="160" rx="65" ry="16" fill="#f472b6" />
    <rect x="955" y="138" width="20" height="180" fill="#fbbf24" />
    <rect x="900" y="245" width="130" height="25" fill="#fbbf24" opacity="0.7" />
  </g>
  <!-- Ice Cream (Right) -->
  <g id="icecream-right">
    <path d="M 1280 200 L 1320 320 L 1240 320 Z" fill="#d4914d" stroke="#a0602f" stroke-width="2" />
    <circle cx="1280" cy="140" r="40" fill="#fca5a5" />
    <circle cx="1260" cy="125" r="32" fill="#fecaca" />
    <circle cx="1300" cy="130" r="35" fill="#fecaca" />
  </g>
  <!-- Toys - Balloon (Top-Center) -->
  <g id="balloon">
    <circle cx="620" cy="80" r="25" fill="#f87171" />
    <line x1="620" y1="105" x2="620" y2="200" stroke="#8b7355" stroke-width="2" />
  </g>
  <!-- Stars -->
  <circle cx="400" cy="70" r="2.5" fill="#fbbf24" opacity="0.6" />
  <circle cx="950" cy="50" r="2" fill="#fbbf24" opacity="0.7" />
  <circle cx="1100" cy="100" r="3" fill="#fbbf24" opacity="0.5" />
</svg>