<svg width="1440" height="300" viewBox="0 0 1440 300" xmlns="http://www.w3.org/2000/svg">
  <defs>
    <linearGradient id="bgPattern" x1="0%" y1="0%" x2="100%" y2="100%">
      <stop offset="0%" style="stop-color:#f8fafc;stop-opacity:1" />
      <stop offset="100%" style="stop-color:#f1f5f9;stop-opacity:1" />
    </linearGradient>
    <pattern id="giftPattern" x="0" y="0" width="100" height="100" patternUnits="userSpaceOnUse">
      <circle cx="50" cy="50" r="4" fill="#1e3a8a" opacity="0.05" />
    </pattern>
  </defs>
  
  <rect width="1440" height="300" fill="url(#bgPattern)" />
  <rect width="1440" height="300" fill="url(#giftPattern)" />
  
  <!-- Subtle gift box icons scattered -->
  <g id="miniGift1">
    <rect x="100" y="80" width="40" height="40" rx="3" fill="#f59e0b" opacity="0.08" />
    <rect x="100" y="100" width="40" height="8" fill="#fbbf24" opacity="0.1" />
  </g>
  
  <g id="miniGift2">
    <rect x="300" y="150" width="35" height="35" rx="3" fill="#10b981" opacity="0.08" />
    <rect x="300" y="168" width="35" height="7" fill="#34d399" opacity="0.1" />
  </g>
  
  <g id="miniGift3">
    <rect x="700" y="100" width="40" height="40" rx="3" fill="#f59e0b" opacity="0.08" />
    <rect x="700" y="120" width="40" height="8" fill="#fbbf24" opacity="0.1" />
  </g>
  
  <g id="miniGift4">
    <rect x="1100" y="160" width="38" height="38" rx="3" fill="#10b981" opacity="0.08" />
    <rect x="1100" y="178" width="38" height="7" fill="#34d399" opacity="0.1" />
  </g>
  
  <!-- Decorative corners -->
  <path d="M 0 0 L 50 0 L 0 50 Z" fill="#f59e0b" opacity="0.05" />
  <path d="M 1440 0 L 1390 0 L 1440 50 Z" fill="#10b981" opacity="0.05" />
  <path d="M 0 300 L 50 300 L 0 250 Z" fill="#10b981" opacity="0.05" />
  <path d="M 1440 300 L 1390 300 L 1440 250 Z" fill="#f59e0b" opacity="0.05" />
</svg>