<svg width="1440" height="420" viewBox="0 0 1440 420" xmlns="http://www.w3.org/2000/svg">
  <defs>
    <linearGradient id="grad1" x1="0%" y1="0%" x2="100%" y2="100%">
      <stop offset="0%" style="stop-color:#1e3a8a;stop-opacity:0.9" />
      <stop offset="100%" style="stop-color:#1e40af;stop-opacity:0.9" />
    </linearGradient>
  </defs>
  <rect width="1440" height="420" fill="url(#grad1)" />
  <!-- Gift Box 1 (Left) -->
  <g id="gift1">
    <rect x="80" y="180" width="120" height="140" rx="8" fill="#ff6b6b" />
    <ellipse cx="140" cy="180" rx="60" ry="15" fill="#ff8787" />
    <rect x="130" y="160" width="20" height="170" fill="#ffd54f" />
    <path d="M 120 200 L 160 220 M 120 220 L 160 240 M 120 240 L 160 260" stroke="#fff" stroke-width="2" />
  </g>
  <!-- Gift Box 2 (Right) -->
  <g id="gift2">
    <rect x="1240" y="220" width="110" height="130" rx="8" fill="#51cf66" />
    <ellipse cx="1295" cy="220" rx="55" ry="14" fill="#69db7c" />
    <rect x="1285" y="200" width="20" height="160" fill="#ffd54f" />
    <circle cx="1295" cy="240" r="4" fill="#fff" />
    <circle cx="1295" cy="265" r="4" fill="#fff" />
  </g>
  <!-- Ice Cream Cone (Center-Left) -->
  <g id="icecream1">
    <path d="M 350 200 L 380 280 L 320 280 Z" fill="#d4914d" stroke="#a0602f" stroke-width="2" />
    <circle cx="350" cy="160" r="35" fill="#ff85b3" />
    <circle cx="330" cy="150" r="28" fill="#ffb3d9" />
    <circle cx="370" cy="155" r="30" fill="#ff99cc" />
    <path d="M 325 180 Q 335 175 345 182 Q 355 175 365 180" fill="#fff" opacity="0.3" />
  </g>
  <!-- Toys - Ball -->
  <g id="toy1">
    <circle cx="950" cy="100" r="30" fill="#ff6b6b" />
    <path d="M 930 100 Q 950 85 970 100" fill="#ff8787" />
    <path d="M 930 100 Q 950 115 970 100" fill="#c92a2a" />
  </g>
  <!-- Toys - Teddy Bear -->
  <g id="teddy">
    <circle cx="1100" cy="280" r="25" fill="#d4914d" />
    <circle cx="1085" cy="270" r="8" fill="#d4914d" />
    <circle cx="1115" cy="270" r="8" fill="#d4914d" />
    <circle cx="1075" cy="295" r="6" fill="#000" />
    <circle cx="1125" cy="295" r="6" fill="#000" />
    <circle cx="1100" cy="305" r="4" fill="#000" />
  </g>
  <!-- Stars -->
  <circle cx="200" cy="80" r="3" fill="#fbbf24" opacity="0.6" />
  <circle cx="1300" cy="120" r="2" fill="#fbbf24" opacity="0.7" />
  <circle cx="700" cy="60" r="2.5" fill="#fbbf24" opacity="0.5" />
</svg>