<svg width="1440" height="420" viewBox="0 0 1440 420" xmlns="http://www.w3.org/2000/svg">
  <defs>
    <linearGradient id="grad4" x1="0%" y1="0%" x2="100%" y2="100%">
      <stop offset="0%" style="stop-color:#ea580c;stop-opacity:0.9" />
      <stop offset="100%" style="stop-color:#d97706;stop-opacity:0.9" />
    </linearGradient>
  </defs>
  <rect width="1440" height="420" fill="url(#grad4)" />
  <!-- Gift Box (Center-Left) -->
  <g id="gift-center">
    <rect x="250" y="180" width="120" height="140" rx="8" fill="#0ea5e9" />
    <ellipse cx="310" cy="180" rx="60" ry="15" fill="#38bdf8" />
    <rect x="300" y="160" width="20" height="170" fill="#fbbf24" />
  </g>
  <!-- Ice Cream (Left-Top) -->
  <g id="icecream-left">
    <path d="M 120 220 L 160 350 L 80 350 Z" fill="#d4914d" stroke="#a0602f" stroke-width="2" />
    <circle cx="120" cy="150" r="38" fill="#ff85b3" />
    <circle cx="100" cy="135" r="30" fill="#ffb3d9" />
    <circle cx="140" cy="140" r="32" fill="#ff99cc" />
  </g>
  <!-- Toy Robot (Right) -->
  <g id="robot">
    <rect x="1200" y="180" width="60" height="80" rx="4" fill="#818cf8" />
    <circle cx="1230" cy="160" r="18" fill="#a5b4fc" />
    <rect x="1215" y="145" width="8" height="20" fill="#fbbf24" />
    <rect x="1237" y="145" width="8" height="20" fill="#fbbf24" />
    <rect x="1190" y="270" width="15" height="40" fill="#818cf8" />
    <rect x="1255" y="270" width="15" height="40" fill="#818cf8" />
  </g>
  <!-- Toys - Spinning Dice (Center-Right) -->
  <g id="dice">
    <rect x="1050" y="280" width="45" height="45" rx="4" fill="#f97316" stroke="#ea580c" stroke-width="2" />
    <circle cx="1063" cy="293" r="2" fill="#fff" />
    <circle cx="1083" cy="293" r="2" fill="#fff" />
    <circle cx="1063" cy="313" r="2" fill="#fff" />
    <circle cx="1083" cy="313" r="2" fill="#fff" />
    <circle cx="1073" cy="303" r="2" fill="#fff" />
  </g>
  <!-- Stars -->
  <circle cx="600" cy="60" r="2.5" fill="#fbbf24" opacity="0.6" />
  <circle cx="1150" cy="90" r="2" fill="#fbbf24" opacity="0.7" />
  <circle cx="800" cy="50" r="3" fill="#34d399" opacity="0.5" />
</svg>